<svg xmlns="http://www.w3.org/2000/svg" width="74.434" height="89.287" viewBox="0 0 74.434 89.287"><defs><style>.a{fill:#fff;}</style></defs><g transform="translate(-264.289 -1964.218)"><path class="a" d="M301.574,1983.463a23,23,0,0,0-15.2,40.224c3.634,3.634,3.3,11.4,3.221,11.481a1.369,1.369,0,0,0,.413,1.074,1.524,1.524,0,0,0,.991.413h21.063a1.367,1.367,0,0,0,.991-.413,1.57,1.57,0,0,0,.413-1.074c0-.082-.413-7.847,3.221-11.481l.248-.248a22.926,22.926,0,0,0-15.363-39.976Zm13.215,38.077c-.082.082-.248.248-.248.33-3.221,3.469-3.8,9.168-3.882,11.894H292.406c-.083-2.726-.661-8.673-4.13-12.224a20.113,20.113,0,1,1,26.513,0Z"/><path class="a" d="M301.491,1989.327a1.4,1.4,0,1,0,0,2.808,15.035,15.035,0,0,1,15.033,15.033,1.4,1.4,0,1,0,2.808,0A17.766,17.766,0,0,0,301.491,1989.327Z"/><path class="a" d="M310.659,2038.224H292.323a3.469,3.469,0,0,0,0,6.938h18.254a3.561,3.561,0,0,0,3.551-3.469A3.49,3.49,0,0,0,310.659,2038.224Zm0,4.047H292.323a.651.651,0,0,1-.661-.66.608.608,0,0,1,.661-.661h18.254a.652.652,0,0,1,.661.661A.589.589,0,0,1,310.659,2042.271Z"/><path class="a" d="M307.934,2046.566H295.049a3.469,3.469,0,0,0,0,6.939h12.885a3.491,3.491,0,0,0,3.469-3.469A3.438,3.438,0,0,0,307.934,2046.566Zm0,4.048H295.049a.652.652,0,0,1-.661-.661.608.608,0,0,1,.661-.661h12.885a.661.661,0,0,1,0,1.322Z"/><path class="a" d="M301.491,1976.607a1.392,1.392,0,0,0,1.4-1.4v-9.581a1.4,1.4,0,0,0-2.808,0v9.581A1.448,1.448,0,0,0,301.491,1976.607Z"/><path class="a" d="M324.866,1971.321a1.332,1.332,0,0,0-1.9.33l-5.286,7.93a1.361,1.361,0,0,0,.331,1.982,1.3,1.3,0,0,0,1.9-.413l5.286-7.929A1.28,1.28,0,0,0,324.866,1971.321Z"/><path class="a" d="M284.724,1981.48a1.33,1.33,0,0,0,.743-.247,1.448,1.448,0,0,0,.413-1.983l-5.121-8.012a1.432,1.432,0,1,0-2.395,1.57l5.121,8.012A1.371,1.371,0,0,0,284.724,1981.48Z"/><path class="a" d="M274.73,1990.236l-8.342-4.543a1.454,1.454,0,0,0-1.9.578,1.319,1.319,0,0,0,.578,1.9l8.342,4.542a1.938,1.938,0,0,0,.661.166,1.362,1.362,0,0,0,1.239-.744A1.454,1.454,0,0,0,274.73,1990.236Z"/><path class="a" d="M338.577,1986.271a1.454,1.454,0,0,0-1.9-.578l-8.425,4.543a1.455,1.455,0,0,0-.578,1.9,1.363,1.363,0,0,0,1.239.744,1.549,1.549,0,0,0,.661-.166l8.425-4.542A1.455,1.455,0,0,0,338.577,1986.271Z"/></g></svg>