<svg xmlns="http://www.w3.org/2000/svg" width="22.583" height="22.599" viewBox="0 0 22.583 22.599"><defs><style>.a{fill:#4f2141;}</style></defs><g transform="translate(-1090.86 -3211.353)"><path class="a" d="M1113.386,3217.989a8.226,8.226,0,0,0-.525-2.735,5.784,5.784,0,0,0-3.3-3.3,8.265,8.265,0,0,0-2.741-.533c-1.209-.057-1.593-.071-4.659-.071s-3.451.014-4.656.067a8.23,8.23,0,0,0-2.74.525,5.493,5.493,0,0,0-2.011,1.307,5.562,5.562,0,0,0-1.3,2,8.274,8.274,0,0,0-.517,2.739c-.058,1.207-.071,1.593-.071,4.659s.013,3.453.065,4.658a8.23,8.23,0,0,0,.527,2.749,5.782,5.782,0,0,0,3.306,3.305,8.26,8.26,0,0,0,2.74.525c1.207.053,1.589.067,4.656.067s3.45-.014,4.655-.067a8.242,8.242,0,0,0,2.741-.525,5.774,5.774,0,0,0,3.3-3.305,8.261,8.261,0,0,0,.525-2.741c.053-1.207.067-1.589.067-4.655s0-3.451-.059-4.656Zm-2.035,9.228a6.173,6.173,0,0,1-.388,2.1,3.748,3.748,0,0,1-2.143,2.149,6.224,6.224,0,0,1-2.1.388c-1.19.053-1.548.067-4.562.067s-3.377-.019-4.563-.071a6.15,6.15,0,0,1-2.1-.384,3.475,3.475,0,0,1-1.3-.842,3.522,3.522,0,0,1-.843-1.3,6.209,6.209,0,0,1-.388-2.1c-.052-1.19-.066-1.548-.066-4.562s.014-3.377.066-4.563a6.173,6.173,0,0,1,.388-2.1,3.438,3.438,0,0,1,.847-1.3,3.515,3.515,0,0,1,1.3-.842,6.21,6.21,0,0,1,2.093-.39c1.19-.052,1.548-.067,4.563-.067s3.376.015,4.562.067a6.176,6.176,0,0,1,2.1.388,3.489,3.489,0,0,1,1.3.842,3.53,3.53,0,0,1,.842,1.3,6.224,6.224,0,0,1,.388,2.1c.053,1.19.067,1.548.067,4.562s-.014,3.367-.067,4.559Z"/><path class="a" d="M1102.158,3216.847a5.8,5.8,0,1,0,5.8,5.8h0A5.8,5.8,0,0,0,1102.158,3216.847Zm0,9.566a3.765,3.765,0,1,1,3.764-3.765,3.766,3.766,0,0,1-3.764,3.765Z"/><path class="a" d="M1109.547,3216.616a1.355,1.355,0,1,1-1.355-1.356,1.355,1.355,0,0,1,1.355,1.356Z"/></g></svg>