<svg xmlns="http://www.w3.org/2000/svg" width="91.956" height="88.278" viewBox="0 0 91.956 88.278"><defs><style>.a{fill:#fff;}</style></defs><g transform="translate(-849.209 -1964.722)"><path class="a" d="M882.311,2018.1a16.551,16.551,0,0,1-33.1,0v-.048a1.768,1.768,0,0,1,.068-.337,1.893,1.893,0,0,1,.062-.346l.013-.033,0,0,14.7-36.749a.078.078,0,0,1,.011-.016c.013-.032.035-.054.048-.083a1.95,1.95,0,0,1,.3-.453,1.721,1.721,0,0,1,.148-.134,1.7,1.7,0,0,1,.377-.254,1.2,1.2,0,0,1,.178-.084,1.813,1.813,0,0,1,.644-.131h20.418a9.22,9.22,0,0,1,7.168-7.171v-5.7a1.84,1.84,0,0,1,3.679,0v5.7a9.224,9.224,0,0,1,7.17,7.171h20.416a1.813,1.813,0,0,1,.644.131c.063.024.118.055.179.084a1.755,1.755,0,0,1,.378.256c.05.044.1.083.146.132a1.875,1.875,0,0,1,.307.455c.013.029.035.049.046.079a.21.21,0,0,0,.011.018l14.7,36.749h0l.013.035a1.828,1.828,0,0,1,.064.355,1.6,1.6,0,0,1,.069.328l0,.027v.024a16.551,16.551,0,0,1-33.1,0v-.025l0-.024a1.619,1.619,0,0,1,.067-.324,1.728,1.728,0,0,1,.066-.359l.013-.035h0l13.688-34.226H904.2a9.225,9.225,0,0,1-7.171,7.171v59.038h27.588a1.839,1.839,0,1,1,0,3.678H865.761a1.839,1.839,0,1,1,0-3.678h27.586v-59.038a9.219,9.219,0,0,1-7.168-7.171h-17.7l13.688,34.226,0,0,.013.033a29.084,29.084,0,0,0,.131.683l0,.027Zm-16.55,12.826A12.894,12.894,0,0,0,878.5,2019.9H853.019A12.891,12.891,0,0,0,865.761,2030.931Zm11.994-14.713-11.994-29.993-11.995,29.993Zm46.857-29.993-12,29.993h23.993Zm0,44.706a12.9,12.9,0,0,0,12.744-11.035H911.871A12.891,12.891,0,0,0,924.612,2030.931Zm-29.425-44.139a5.518,5.518,0,1,0-5.518-5.518A5.525,5.525,0,0,0,895.187,1986.792Z"/></g></svg>