<svg xmlns="http://www.w3.org/2000/svg" width="22.952" height="22.933" viewBox="0 0 22.952 22.933"><defs><style>.a{fill:#4f2141;}</style></defs><g transform="translate(-1031.975 -3252.009)"><path class="a" d="M1054.927,3274.942h0v-8.4c0-4.114-.884-7.283-5.695-7.283a4.993,4.993,0,0,0-4.492,2.457h-.066v-2.081h-4.561v15.309h4.748v-7.581c0-2,.378-3.926,2.849-3.926,2.435,0,2.472,2.279,2.472,4.054v7.455Z"/><path class="a" d="M1032.387,3259.631h4.746v15.309h-4.746Z"/><path class="a" d="M1034.754,3252.009a2.767,2.767,0,1,0,2.755,2.779v-.026A2.755,2.755,0,0,0,1034.754,3252.009Z"/></g></svg>