<svg xmlns="http://www.w3.org/2000/svg" width="92.582" height="85" viewBox="0 0 92.582 85"><defs><style>.a{fill:#fff;}</style></defs><g transform="translate(-702.709 -2220)"><path class="a" d="M795.291,2247.247a26.81,26.81,0,0,0-8.221-19.367,28.608,28.608,0,0,0-38.347-.982,28.458,28.458,0,0,0-38.161,1.222,26.236,26.236,0,0,0-7.851,19.016,28.716,28.716,0,0,0,8.313,20.2,7.908,7.908,0,0,0,2.037,8.332,8.462,8.462,0,0,0,5.925,2.37,8.678,8.678,0,0,0,.963,0,7.406,7.406,0,0,0,2.389,6.7,8.476,8.476,0,0,0,5.925,2.37,8.679,8.679,0,0,0,.963,0,7.406,7.406,0,0,0,2.388,6.7,8.461,8.461,0,0,0,5.925,2.37,8.682,8.682,0,0,0,.963-.3,8.244,8.244,0,0,0,0,.833,8.48,8.48,0,0,0,14.2,6.055l5.555-5.555a8.134,8.134,0,0,0,1.574-2.2,8.5,8.5,0,0,0,8.054-2.093,7.4,7.4,0,0,0,2.389-6.665H771a8.541,8.541,0,0,0,5.962-2.407,7.5,7.5,0,0,0,2.37-6.8,8.243,8.243,0,0,0,8.7-11.572A26.759,26.759,0,0,0,795.291,2247.247ZM715.672,2273a4.406,4.406,0,0,1-.1-6.231c.033-.035.067-.068.1-.1l5.555-5.555a4.831,4.831,0,0,1,6.684,0,4.406,4.406,0,0,1,.1,6.231c-.033.034-.067.068-.1.1L722.356,2273A4.833,4.833,0,0,1,715.672,2273Zm9.258,9a4.406,4.406,0,0,1-.1-6.231c.033-.035.067-.068.1-.1l5.555-5.554a4.813,4.813,0,0,1,6.684,0,4.406,4.406,0,0,1,.1,6.231c-.033.034-.067.068-.1.1L731.614,2282A4.833,4.833,0,0,1,724.93,2282Zm15.942,9a4.833,4.833,0,0,1-6.684,0,4.407,4.407,0,0,1-.1-6.232c.033-.034.067-.068.1-.1l5.555-5.555a4.833,4.833,0,0,1,6.684,0,4.407,4.407,0,0,1,.1,6.232c-.033.034-.067.068-.1.1Zm15,3.7-5.555,5.555a4.833,4.833,0,0,1-6.684,0,4.689,4.689,0,0,1-1.407-3.333,4.294,4.294,0,0,1,1.222-3.259l5.555-5.555a4.981,4.981,0,0,1,6.8.111,4.407,4.407,0,0,1,.232,6.228c-.063.068-.128.134-.2.2Zm27.83-22.5a4.8,4.8,0,0,1-6.629,0,1.847,1.847,0,0,0-.648-.389l-12.48-12.128a1.851,1.851,0,0,0-2.573,2.648l12.961,12.628a4.37,4.37,0,0,1,.154,6.178c-.05.052-.1.1-.154.154a4.8,4.8,0,0,1-6.055.463c-.13-.148-.241-.315-.389-.463l-12.961-12.628a1.852,1.852,0,0,0-2.775,2.452,1.777,1.777,0,0,0,.2.2l12.424,12.073a1.89,1.89,0,0,0,.389.555,4.616,4.616,0,0,0,.593.463,4.331,4.331,0,0,1,.944,2.685,4.405,4.405,0,0,1-1.444,3.24,4.778,4.778,0,0,1-4.37,1.185h0a8.069,8.069,0,0,0-2.463-5.832,8.754,8.754,0,0,0-7-2.333A7.405,7.405,0,0,0,749,2276.54a8.479,8.479,0,0,0-6.87-2.3,7.406,7.406,0,0,0-2.388-6.7,8.482,8.482,0,0,0-6.87-2.3,7.407,7.407,0,0,0-2.388-6.7,8.555,8.555,0,0,0-11.832,0L713.1,2264.1h0a25.015,25.015,0,0,1-6.684-16.961,22.569,22.569,0,0,1,6.74-16.368A24.774,24.774,0,0,1,746,2229.416l-11.295,11.11a7.832,7.832,0,0,0-.333,11.7,8.517,8.517,0,0,0,11.8,0l12.091-11.758,12.961,12.962h0l12.535,12.442a4.369,4.369,0,0,1,.1,6.179C783.8,2272.106,783.753,2272.157,783.7,2272.207Zm2.037-9.647-11.925-11.776-14.257-14.146a1.953,1.953,0,0,0-.278-.186,1.912,1.912,0,0,0-.333-.222,1.833,1.833,0,0,0-.315,0,.98.98,0,0,0-.7,0,1.884,1.884,0,0,0-.352,0,1.963,1.963,0,0,0-.3.185,1.809,1.809,0,0,0-.3.2l-13.387,12.961a4.8,4.8,0,0,1-6.666,0,4.151,4.151,0,0,1-1.3-3.11,4.317,4.317,0,0,1,1.593-3.167l12.831-12.5h0a24.9,24.9,0,0,1,34.44-.278A23.183,23.183,0,0,1,785.737,2262.56Z"/></g></svg>