<svg xmlns="http://www.w3.org/2000/svg" width="89" height="89" viewBox="0 0 89 89"><defs><style>.a{fill:#fff;}</style></defs><g transform="translate(-406.5 -2220)"><path class="a" d="M434.806,2292.581a32.558,32.558,0,0,1-11.731-11.611,32.176,32.176,0,0,1-4.334-13.526l2.474,2.468a2.608,2.608,0,0,0,3.684-3.691l-6.975-6.96a2.6,2.6,0,0,0-1.882-.759l-.038,0a2.6,2.6,0,0,0-2.178,1.176l-6.561,6.545a2.608,2.608,0,0,0,3.684,3.692l2.551-2.546a37.5,37.5,0,0,0,18.7,29.731,2.608,2.608,0,1,0,2.607-4.517Z"/><path class="a" d="M494.738,2259.265a2.607,2.607,0,0,0-3.687,0l-2.546,2.541a37.392,37.392,0,0,0-5.083-16.249,37.792,37.792,0,0,0-13.611-13.475,2.608,2.608,0,0,0-2.608,4.516,32.563,32.563,0,0,1,11.729,11.612,32.168,32.168,0,0,1,4.333,13.53l-2.48-2.475a2.608,2.608,0,0,0-3.684,3.692l6.975,6.959a2.6,2.6,0,0,0,1.842.762l.044,0,.041,0a2.6,2.6,0,0,0,2.187-1.191l6.545-6.53A2.609,2.609,0,0,0,494.738,2259.265Z"/><path class="a" d="M482.626,2279.8a2.608,2.608,0,0,0-3.564.948,32.363,32.363,0,0,1-25.2,16.032l2.464-2.458a2.608,2.608,0,0,0-3.684-3.691l-6.974,6.96a2.608,2.608,0,0,0-.766,1.846c0,.013,0,.027,0,.04s0,.027,0,.04a2.6,2.6,0,0,0,1.188,2.186l6.552,6.539a2.607,2.607,0,0,0,3.684-3.691l-2.536-2.531a37.589,37.589,0,0,0,29.781-18.656A2.608,2.608,0,0,0,482.626,2279.8Z"/><path class="a" d="M419.381,2249.376a2.606,2.606,0,0,0,3.563-.948,32.355,32.355,0,0,1,25.285-16.037l-2.646,2.639a2.607,2.607,0,0,0,3.684,3.691l7.15-7.134a2.607,2.607,0,0,0,.765-1.846c0-.013,0-.027,0-.041s0-.026,0-.04a2.6,2.6,0,0,0-1.186-2.185l-6.729-6.713a2.607,2.607,0,0,0-3.684,3.691l2.7,2.7a37.6,37.6,0,0,0-29.855,18.662A2.607,2.607,0,0,0,419.381,2249.376Z"/></g></svg>