<svg xmlns="http://www.w3.org/2000/svg" width="87.194" height="93" viewBox="0 0 87.194 93"><defs><style>.a{fill:#fff;stroke:#4f2141;stroke-miterlimit:10;stroke-width:2px;}</style></defs><g transform="translate(-556.403 -1970)"><path class="a" d="M641.236,1994.951c-8.9-5.334-13.784-10.983-16.314-14.784a23.559,23.559,0,0,1-3.384-7A2.685,2.685,0,0,0,618.87,1971H581.129a2.724,2.724,0,0,0-2.669,2.179c-.023.113-2.52,11.477-19.7,21.772a2.722,2.722,0,0,0-1.24,3.005c.238.94,5.928,23.183,14.285,37.048a92,92,0,0,0,15.165,18.543,62.336,62.336,0,0,0,7.115,5.884c3.345,2.3,4.976,2.569,5.911,2.569s2.565-.267,5.911-2.569a62.423,62.423,0,0,0,7.116-5.884A91.973,91.973,0,0,0,628.19,2035c8.359-13.865,14.048-36.108,14.286-37.048A2.725,2.725,0,0,0,641.236,1994.951Zm-4.557,3.588c-.676,2.453-1.992,7.015-3.8,12.284H618.77a18.943,18.943,0,0,0-16.044-15.989v-18.385h14.143C618.411,1980.594,623.176,1989.927,636.679,1998.539ZM600.066,2027a13.465,13.465,0,0,1-13.444-13.116,2.587,2.587,0,0,0,0-.673A13.451,13.451,0,1,1,600.066,2027Zm-16.936-50.551h14.147v18.4a18.943,18.943,0,0,0-15.915,15.971H567.117c-1.8-5.269-3.12-9.831-3.8-12.284C576.823,1989.927,581.588,1980.594,583.13,1976.449Zm7.137,72.712a86.453,86.453,0,0,1-13.791-16.97,101.429,101.429,0,0,1-7.4-15.919h12.286a18.943,18.943,0,0,0,15.98,15.98v22.8A56.753,56.753,0,0,1,590.267,2049.161Zm33.256-16.97a86.448,86.448,0,0,1-13.791,16.97,57.489,57.489,0,0,1-6.942,5.805v-22.714a18.943,18.943,0,0,0,15.98-15.98h12.154A101.432,101.432,0,0,1,623.523,2032.191Z"/><path class="a" d="M603.662,2008.531l-6.007,6.007-1.57-1.908a2.724,2.724,0,0,0-4.207,3.463l3.477,4.225a2.72,2.72,0,0,0,1.972.99c.044,0,.088,0,.132,0a2.72,2.72,0,0,0,1.926-.8l8.13-8.129a2.725,2.725,0,0,0-3.853-3.853Z"/></g></svg>