<svg xmlns="http://www.w3.org/2000/svg" width="27.018" height="21.963" viewBox="0 0 27.018 21.963"><defs><style>.a{fill:#4f2141;}</style></defs><g transform="translate(-1032.205 -3211.978)"><path class="a" d="M1059.223,3214.587a11.555,11.555,0,0,1-3.191.875,5.512,5.512,0,0,0,2.435-3.071,11.065,11.065,0,0,1-3.513,1.341,5.538,5.538,0,0,0-9.582,3.787,5.714,5.714,0,0,0,.129,1.263,15.689,15.689,0,0,1-11.416-5.788,5.541,5.541,0,0,0,1.7,7.4,5.469,5.469,0,0,1-2.5-.681v.06a5.562,5.562,0,0,0,4.438,5.441,5.51,5.51,0,0,1-1.452.183,4.838,4.838,0,0,1-1.048-.094,5.593,5.593,0,0,0,5.176,3.859,11.127,11.127,0,0,1-6.869,2.366,10.32,10.32,0,0,1-1.325-.076,15.765,15.765,0,0,0,24.261-13.062c0-.071,0-.142,0-.214,0-.245,0-.48-.02-.716A11.037,11.037,0,0,0,1059.223,3214.587Z"/></g></svg>