<svg xmlns="http://www.w3.org/2000/svg" width="32.757" height="22.947" viewBox="0 0 32.757 22.947"><defs><style>.a{fill:#4f2141;}.b{fill:#fff;}</style></defs><g transform="translate(-1087.243 -3252.002)"><path class="a" d="M1119.322,3255.6a4.105,4.105,0,0,0-2.888-2.886,95.951,95.951,0,0,0-12.815-.7,99.746,99.746,0,0,0-12.814.676,4.188,4.188,0,0,0-2.887,2.912,46.376,46.376,0,0,0,0,15.755,4.1,4.1,0,0,0,2.887,2.888,96.129,96.129,0,0,0,12.816.7,99.764,99.764,0,0,0,12.815-.676,4.1,4.1,0,0,0,2.888-2.886,43.226,43.226,0,0,0,.673-7.876,41,41,0,0,0-.675-7.9Z"/><path class="b" d="M1100.355,3268.386l8.524-4.91-8.524-4.911Z"/></g></svg>